<svg width="25" height="24" viewBox="0 0 25 24" fill="none" xmlns="http://www.w3.org/2000/svg">
<g id="electric_moped">
<mask id="mask0_447_3012" style="mask-type:alpha" maskUnits="userSpaceOnUse" x="0" y="0" width="25" height="24">
<rect id="Bounding box" x="0.333496" width="24" height="24" fill="#AFAFAF"/>
</mask>
<g mask="url(#mask0_447_3012)">
<path id="electric_moped_2" d="M7.3335 17C6.50016 17 5.79183 16.7083 5.2085 16.125C4.62516 15.5417 4.3335 14.8333 4.3335 14H2.3335V11C2.3335 9.9 2.72516 8.95833 3.5085 8.175C4.29183 7.39167 5.2335 7 6.3335 7H10.3335V12H13.8335L17.3335 7.65V5H14.3335V3H17.3335C17.8835 3 18.3543 3.19583 18.746 3.5875C19.1377 3.97917 19.3335 4.45 19.3335 5V8.35L14.8335 14H10.3335C10.3335 14.8333 10.0418 15.5417 9.4585 16.125C8.87516 16.7083 8.16683 17 7.3335 17ZM7.3335 15C7.61683 15 7.85433 14.9042 8.046 14.7125C8.23766 14.5208 8.3335 14.2833 8.3335 14H6.3335C6.3335 14.2833 6.42933 14.5208 6.621 14.7125C6.81266 14.9042 7.05016 15 7.3335 15ZM5.3335 6V4H10.3335V6H5.3335ZM19.3335 17C18.5002 17 17.7918 16.7083 17.2085 16.125C16.6252 15.5417 16.3335 14.8333 16.3335 14C16.3335 13.1667 16.6252 12.4583 17.2085 11.875C17.7918 11.2917 18.5002 11 19.3335 11C20.1668 11 20.8752 11.2917 21.4585 11.875C22.0418 12.4583 22.3335 13.1667 22.3335 14C22.3335 14.8333 22.0418 15.5417 21.4585 16.125C20.8752 16.7083 20.1668 17 19.3335 17ZM19.3335 15C19.6168 15 19.8543 14.9042 20.046 14.7125C20.2377 14.5208 20.3335 14.2833 20.3335 14C20.3335 13.7167 20.2377 13.4792 20.046 13.2875C19.8543 13.0958 19.6168 13 19.3335 13C19.0502 13 18.8127 13.0958 18.621 13.2875C18.4293 13.4792 18.3335 13.7167 18.3335 14C18.3335 14.2833 18.4293 14.5208 18.621 14.7125C18.8127 14.9042 19.0502 15 19.3335 15ZM13.3335 23L7.3335 20H11.3335V18L17.3335 21H13.3335V23Z" fill="#AFAFAF"/>
</g>
</g>
</svg>
